<?xml version="1.0" encoding="utf-8"?>
<!-- Generator: Adobe Illustrator 27.8.0, SVG Export Plug-In . SVG Version: 6.00 Build 0)  -->
<svg version="1.1" id="Layer_1" xmlns="http://www.w3.org/2000/svg" xmlns:xlink="http://www.w3.org/1999/xlink" x="0px" y="0px"
	 viewBox="0 0 2640.66 1064.12" style="enable-background:new 0 0 2640.66 1064.12;" xml:space="preserve">
<style type="text/css">
	.st0{fill:#993E8B;}
	.st1{fill:#923083;}
	.st2{fill:#943486;}
	.st3{fill:#963787;}
	.st4{fill:#943385;}
	.st5{fill:#933385;}
	.st6{fill:#943485;}
	.st7{fill:#953687;}
	.st8{fill:#953586;}
	.st9{fill:#943586;}
	.st10{fill:#933284;}
	.st11{fill:#F5ECF4;}
</style>
<g>
	<path class="st0" d="M1083.83,563.51c-0.37,2.75-0.86,5.35-4.63,4.94c-1.05-0.11-2.11-0.01-3.17-0.01c-46.04,0-92.09,0-138.13-0.01
		c-1.82,0-3.64-0.18-6.65-0.34c8.96-69.18,22.43-136.85,47.95-201.64c25.52-64.81,63.68-122.18,105.69-176.56
		c-0.3-1.05-0.3-1.36-0.46-1.55c-0.15-0.18-0.44-0.28-0.69-0.33c-0.77-0.14-1.56-0.33-2.33-0.33c-77-0.1-154-0.18-231-0.29
		c-0.23,0-0.47-0.23-1.3-0.66c0-42.67,0-85.65,0-129.21c138.47,0,276.97,0,415.92,0c0.24,2.09,0.61,3.85,0.61,5.62
		c0.04,30.45-0.03,60.9,0.1,91.35c0.02,4.02-1.03,6.92-4.11,9.67c-68,60.7-113.62,135.9-143.33,221.45
		c-10.7,30.81-18.9,62.24-24.59,94.34c-0.18,1.02-0.21,2.08-0.39,4.09c8.76,0.68,17.27,0.07,26.46-0.04c0-14.43,0-28.36,0-42.52
		c36.04-18.63,71.64-37.05,108.44-56.07c0,33.43,0,65.38,0,97.91c38.17,0,75.6,0,113.81,0c15.1,47.98,30.17,95.84,45.33,144.02
		c3.45-1.79,3.28-5.02,4-7.56c11.29-39.69,22.45-79.41,33.66-119.12c1.65-5.83,3.4-11.62,5.3-18.12c33.31,0,66.32,0,100.04,0
		c-0.78-4.81-1.29-8.7-2.05-12.55c-16.11-81.49-46.27-157.15-93.99-225.41c-20.25-28.96-43.89-55.03-70.12-78.68
		c-4.4-3.96-5.88-7.96-5.83-13.7c0.26-28.59,0.12-57.19,0.12-85.79c0-2.63,0-5.26,0-7.76c5.97-1.86,408.43-2.22,416.91-0.42
		c0,42.73,0,85.53,0,129.2c-78.6,0-157.08,0-235.56,0c-0.78,4.29,2.02,6.03,3.66,8.19c22.19,29.05,42.89,59.09,61.65,90.5
		c31.77,53.18,53.37,110.34,67.57,170.48c7.91,33.51,13.85,67.36,18.73,101.42c0.45,3.12,0.66,6.26,0.98,9.33
		c-6.04,1.7-133.66,2.39-151.4,0.85c-2.51-22.49-3.58-45.35-9.09-67.84c-1.69,4.4-3.45,8.78-5.07,13.2
		c-29.82,81.47-59.53,162.98-89.54,244.38c-4.47,12.13-10.02,23.9-15.67,35.55c-13.56,27.94-36.69,42.75-66.73,48.13
		c-22.15,3.97-44.27,3.03-66.43,0.75c-11.54-1.19-23.04-2.65-35.23-4.06c-3.15-27.19-6.24-53.86-9.45-81.65
		c3.94,1.14,6.69,1.86,9.39,2.74c15.02,4.88,30.48,6.53,46.19,6.07c19.84-0.59,27.17-9.86,33.81-25.06
		c1.53-3.51-0.14-6.14-1.35-8.99c-11.24-26.55-22.51-53.09-33.76-79.64c-11.25-26.55-22.48-53.11-33.73-79.65
		c-0.71-1.68-1.54-3.32-2.4-5.17c-10.93,0-21.67,0-33.11,0c0,4.05-0.01,7.67,0,11.29c0.09,22.5,0.17,45.01,0.31,67.51
		c0.03,4.23,0.14,8.48,0.54,12.69c0.79,8.16,4.24,11.55,12.44,10.91c6.53-0.5,13.02-2.12,19.43-3.62c4.84-1.13,9.54-2.87,15.18-4.61
		c2.98,26.85,5.87,52.99,8.87,80.03c-12.16,2.2-23.48,4.63-34.92,6.24c-19.43,2.73-38.98,3.86-58.56,1.92
		c-7.34-0.73-14.76-1.75-21.85-3.71c-21.17-5.87-35.2-19.68-42.59-40.28c-5.53-15.42-6.59-31.6-6.92-47.72
		c-0.54-26.2-0.37-52.42-0.49-78.63c-0.02-3.66,0-7.32,0-11.9c-3.79,0-6.85,0-9.91,0c-6.88,0.01-13.76-0.01-20.64,0.07
		c-2.64,0.03-4.83-0.29-4.82-3.65c0-4.42,0-8.85,0-13.27c-0.36,0-0.72,0-1.08,0C1083.83,554.67,1083.83,559.09,1083.83,563.51z
		 M1258.24,64.54c-134.67,0-268.46,0-402.17,0c-1.64,9.35-1.26,110.33,0.54,116.45c80.63,0,161.45,0,244.01,0
		c-44.2,55.88-83.66,112.98-110.81,177.61c-27.24,64.83-41.18,132.99-50.77,202.7c46.34,0,91.72,0,137.5,0
		c0.25-1.95,0.44-3.47,0.63-5c3.23-25.69,5.91-51.47,9.82-77.06c4.6-30.12,12.57-59.49,22.25-88.4
		c29.61-88.42,75.56-166.49,145.28-229.47c3.04-2.75,4.17-5.6,4.15-9.63c-0.15-27.01-0.07-54.02-0.09-81.03
		C1258.57,68.92,1258.38,67.11,1258.24,64.54z M1365.47,64.77c0,3.46,0,6.32,0,9.19c0,24.88,0.2,49.77-0.14,74.65
		c-0.09,6.37,1.82,10.73,6.53,15.05c54.93,50.32,95.48,110.67,124.62,179.05c27.85,65.35,43.5,133.58,49.37,204.22
		c0.41,4.91,1.07,9.79,1.61,14.6c46.08,0,91.23,0,137.09,0c-0.37-3.82-0.47-7.22-1.06-10.54c-4.58-25.77-8.65-51.65-14.03-77.26
		c-12.2-58.02-31.09-113.69-59.82-165.8c-23.58-42.77-51.38-82.65-81.64-120.89c-1.37-1.73-2.52-3.63-3.95-5.7
		c1.17-0.33,1.42-0.46,1.67-0.46c79.36-0.06,158.73-0.1,238.09-0.16c0.79,0,1.58-0.09,2.37-0.15c0.26-0.02,0.54-0.03,0.77-0.14
		c0.23-0.11,0.42-0.32,0.61-0.5c0.19-0.18,0.36-0.37,0.81-0.86c0-37.72,0-75.75,0-114.3C1634.25,64.77,1500.51,64.77,1365.47,64.77z
		 M1126.46,560.23c0.29,7.05,0.73,13.32,0.78,19.61c0.17,23.29,0.01,46.59,0.4,69.88c0.19,11.36,0.77,22.76,2.11,34.03
		c3.94,33.17,21.62,54.23,56.52,58.11c24.67,2.74,49.1,1.27,73.46-2.79c5.9-0.98,11.74-2.31,18.32-3.62
		c-2.45-21.96-4.8-43.1-7.23-64.85c-4.5,1.15-8.02,2.29-11.62,2.91c-6.49,1.1-13.02,2.61-19.55,2.63
		c-9.55,0.03-15.01-5.36-16.43-14.91c-0.62-4.18-1.09-8.42-1.12-12.63c-0.19-27-0.26-54-0.33-81c-0.01-2.3,0.27-4.6,0.44-7.35
		c13.92-0.25,27.35-0.44,40.78-0.77c3.47-0.08,4.37,2.28,5.42,4.78c4.1,9.75,8.24,19.49,12.37,29.23
		c19.43,45.77,38.89,91.52,58.24,137.33c1.09,2.58,2.5,5.93,1.72,8.23c-4.74,13.91-11.73,26.18-26.99,31.02
		c-8.19,2.6-16.63,3.27-25.11,2.3c-12-1.37-23.96-3.1-36.69-4.77c2.46,21.23,4.94,42.62,7.45,64.29c4.05,0.62,7.4,1.23,10.77,1.62
		c8.41,0.96,16.81,2.01,25.24,2.67c19.01,1.5,38.01,2.11,56.96-1.02c28.11-4.63,50.04-18.06,62.9-44.21
		c5.24-10.67,10.41-21.45,14.52-32.58c31.93-86.59,63.59-173.28,95.32-259.95c0.97-2.65,1.71-5.38,2.69-8.5
		c-31.26,0-61.76,0-92.59,0c-15.37,54.33-30.57,108.01-45.76,161.69c-0.55-0.01-1.1-0.03-1.65-0.04
		c-16.94-53.78-33.88-107.55-50.89-161.57c-38.81,0-76.77,0-115.13,0c-0.61-31.03,0.17-61.51-0.68-92.5
		c-2.2,0.73-3.25,0.94-4.16,1.41c-28.66,14.8-57.29,29.68-86,44.4c-3.29,1.69-4.77,3.75-4.43,7.42c0.24,2.62,0.05,5.29,0.05,7.94
		c0,10.55,0,21.1,0,32.8c-11.75,0-22.97,0-34.21,0c0,23.52,0,45.86,0,68.75c6.13,0,11.64,0,17.15,0
		C1114.99,560.23,1120.49,560.23,1126.46,560.23z"/>
	<path class="st1" d="M1094.72,745.92c-21.5,0-41.74,0-63.11,0c0-4.76,0.01-9.2,0-13.64c-0.06-24.09-0.1-48.18-0.2-72.28
		c-0.02-3.97,0.02-7.98-0.58-11.88c-1.55-10.06-7.1-16.15-15.64-17.72c-10.42-1.92-20.3,2.43-25.05,11.23
		c-3.74,6.93-4.77,14.59-4.82,22.29c-0.14,20.65,0,41.3,0.03,61.95c0.01,6.56,0,13.12,0,20.23c-20.84,0-41.02,0-61.8,0
		c0-53.48,0-106.57,0-160.23c18.7,0,37.33,0,56.86,0c0,7.59,0,15.1,0,24.54c3.35-3.36,5.37-5.24,7.23-7.27
		c18.41-20.13,41.44-25.55,67.26-20.23c16.35,3.37,28.18,13.2,33.81,29.27c2.16,6.18,4.12,12.79,4.27,19.25
		C1093.86,669.24,1094.19,707.06,1094.72,745.92z"/>
	<path class="st1" d="M1551.61,737.1c0-3.39,0.02-6.75,0-10.11c-0.16-30.97-0.63-61.95-0.32-92.91c0.09-9.15,1.41-18.53,3.8-27.36
		c5.24-19.39,19.08-30.07,38.39-33.34c10.16-1.72,20.53-1.37,30.77,0.85c12.93,2.8,23.18,9.93,32.27,19.14
		c1.98,2,4.06,3.9,7.13,6.83c0-8.59,0-16.04,0-23.96c19.56,0,38.26,0,57.74,0c0,53.18,0,106.28,0,160.13c-19.72,0-39.92,0-61.25,0
		c0-2.62,0.01-5.43,0-8.24c-0.08-23.83,0.07-47.66-0.38-71.48c-0.13-6.78-1.35-13.72-3.25-20.25c-2.49-8.57-8.99-13.52-17.72-15.22
		c-11.58-2.25-21.25,3.82-23.96,15.28c-0.9,3.81-1.04,7.86-1.05,11.8c-0.05,26.48,0.04,52.95,0.07,79.43c0,2.89,0,5.78,0,9.41
		C1593.14,737.1,1572.93,737.1,1551.61,737.1z"/>
	<path class="st1" d="M1873.41,671.46c-41.15,0-81.55,0-122.37,0c-1.55-8.2-0.64-16.05-0.18-23.86c0.26-4.46,1.09-8.93,2.05-13.31
		c7.55-34.24,29.3-54.89,64.84-60.8c19.16-3.19,38.44-3.47,57.53,1.1c35.47,8.5,58.73,36.3,61.36,72.83
		c1.57,21.8-2.22,42.09-15.05,60.26c-11.94,16.91-28.21,26.95-48.47,30.18c-22.37,3.57-44.8,3.48-67.03-1.32
		c-23.56-5.09-39.68-19.77-51.86-40.94c2.63-0.61,4.53-1.26,6.47-1.46c16.05-1.6,32.12-2.95,48.14-4.77
		c4.56-0.52,7.21,1.25,10.19,4.27c13.13,13.32,34.23,13.47,46.1,0.53C1870.75,688.04,1873.12,680.65,1873.41,671.46z M1872.6,641.02
		c1.93-14.63-10.18-33.43-29.95-32.95c-17.75,0.43-29.69,14.01-28.33,32.95C1833.76,641.02,1853.21,641.02,1872.6,641.02z"/>
	<path class="st1" d="M390.3,684.03c1.32,14,6.25,24.77,19.05,29.67c13.27,5.08,25.63,2.43,35.67-7.85
		c3.29-3.37,6.39-4.67,11.04-4.2c17.57,1.79,35.18,3.23,54.03,4.91c-1.75,3.14-2.84,5.44-4.23,7.55
		c-12.87,19.48-30.24,32.07-53.72,35.8c-21.34,3.39-42.53,3.63-63.87-0.11c-34.6-6.06-56.46-36.49-60.5-66.32
		c-1.87-13.8-1.64-27.54,2.28-40.9c9.24-31.47,30.89-49.85,62.44-56.39c19.58-4.05,39.48-3.57,59.07,0.7
		c33.9,7.38,54.95,29.97,60.21,64.34c1,6.52,1.36,13.14,1.81,19.73c0.24,3.64,0.04,7.32,0.04,12.01
		C472.5,683.33,431.94,683.67,390.3,684.03z M449.61,653.46c0.85-18.49-10.05-31.86-26.37-32.84c-19.04-1.14-31.5,11.22-32.76,32.84
		C410.22,653.46,429.93,653.46,449.61,653.46z"/>
	<path class="st1" d="M2135.09,693.42c9.93-1,18.54-1.89,27.15-2.73c8.68-0.85,17.4-1.37,26.03-2.62c5.18-0.75,8.68,0.39,12.47,4.3
		c12.87,13.29,34.28,13,46.01-0.14c5.51-6.17,7.54-13.69,8.25-22.27c-40.97,0-81.62,0-122.71,0c-0.3-2.17-0.71-3.91-0.74-5.66
		c-0.23-11.41,0.5-22.73,3.18-33.87c6.89-28.7,24.18-47.86,52.7-55.78c22.75-6.32,45.96-6.96,69.05-1.59
		c34.64,8.06,57.61,34.82,61.28,70.32c1.41,13.64,0.73,27.06-3.63,39.97c-9.75,28.86-29.02,47.64-59.61,52.88
		c-22.32,3.82-44.77,3.54-67.01-1.22C2163.93,729.95,2147.8,715.27,2135.09,693.42z M2254.53,639.52
		c-0.44-20.78-14.88-34.64-33.28-32.87c-16.53,1.59-27.49,15.63-25.51,32.87C2215.15,639.52,2234.59,639.52,2254.53,639.52z"/>
	<path class="st1" d="M895.61,681.45c-42.3,0.35-82.88,0.68-123.95,1.01c1.02,13.94,6.16,24.59,18.82,29.6
		c12.88,5.09,25.22,2.84,35.08-7.14c4.01-4.06,7.77-5.32,13.17-4.76c17.06,1.77,34.17,3.17,52.17,4.8
		c-1.14,2.51-1.77,4.46-2.83,6.13c-12.74,19.84-29.92,33.1-53.73,37.06c-21.32,3.55-42.58,4.2-63.86,0.2
		c-30.68-5.76-49.38-25.02-58.53-53.94c-6.05-19.14-5.81-38.81,0.73-57.76c9.9-28.69,30.82-45.67,60.13-51.8
		c21.73-4.54,43.75-4.11,65.23,1.73c31.67,8.61,49.29,30.37,54.75,62.15C894.57,659.05,894.65,669.67,895.61,681.45z M830.9,651.97
		c0.55-19.62-10.91-32.37-28.18-33.08c-16.04-0.66-31.3,12.65-30.72,33.08C791.43,651.97,810.88,651.97,830.9,651.97z"/>
	<path class="st1" d="M299.58,627.58c-20.03,2.06-39.1,4.03-58.34,6.01c-5.73-14.68-17.51-17.12-30.7-15.71
		c-3.93,0.42-8.26,2.38-11.28,4.96c-5.62,4.81-4.35,12.3,2.23,15.71c2.76,1.43,5.91,2.38,8.99,2.88c13.55,2.2,27.24,3.71,40.69,6.36
		c9,1.78,18.17,4.04,26.47,7.84c34.25,15.66,35.99,56.57,10.11,79.33c-11.5,10.11-25.54,14.73-40.45,16.76
		c-23.51,3.2-46.99,2.91-70.12-2.58c-22.85-5.43-37.1-19.98-43.49-43.85c20.69-2.07,40.76-4.09,60.78-6.09
		c0.7,0.9,1.34,1.43,1.6,2.11c5.44,14.5,17.53,21.11,38.02,16.73c3.47-0.74,7.04-2.56,9.81-4.8c7.01-5.66,6.03-14.9-2.03-18.83
		c-3.97-1.93-8.48-2.92-12.85-3.84c-15.77-3.29-31.61-6.23-47.36-9.59c-10.19-2.18-19.63-6.03-27.31-13.56
		c-21.35-20.92-18.15-54.12,6.94-70.39c8.57-5.55,18.05-8.63,28.09-10.25c21.06-3.4,42.13-3.34,63.16-0.03
		C275.93,590.45,290.78,604.44,299.58,627.58z"/>
	<path class="st1" d="M2403.48,618.15c-19.07-1.79-37.95-3.57-57.56-5.41c0.55-2.2,0.76-3.91,1.41-5.44
		c9.52-22.75,27.15-34.5,51.18-36.94c19.77-2.01,39.58-2.51,59.27,1.09c8.65,1.58,16.91,4.27,24.41,8.96
		c16.05,10.03,24.06,24.56,22.12,43.4c-1.91,18.49-12.55,31.58-29.81,37.71c-12.86,4.57-26.56,6.82-39.93,9.91
		c-7.71,1.79-15.52,3.19-23.27,4.81c-1.54,0.32-3.05,0.85-4.55,1.35c-5.07,1.7-9.15,4.54-9.74,10.29
		c-0.63,6.12,2.93,10.18,8.03,12.46c10.92,4.89,22.05,5.04,32.88-0.39c6.31-3.16,9.08-9.36,12.42-16.41
		c19.8,1.75,39.96,3.52,60.76,5.36c-0.39,2.37-0.45,4.14-0.98,5.76c-7.54,23.32-24.38,35.84-47.74,40.09
		c-23.85,4.34-47.87,5.09-71.74,0.25c-17.6-3.57-33.16-10.98-43.04-27.03c-15.71-25.51-6.77-55.35,20.39-67.96
		c12.11-5.62,25.18-7.78,38.26-9.79c9.92-1.52,19.83-3.06,29.72-4.75c2.32-0.39,4.66-1.14,6.76-2.18c7.58-3.75,8.51-12.19,1.7-17.31
		c-2.42-1.82-5.64-2.9-8.66-3.55C2421.71,599.41,2410.5,604.68,2403.48,618.15z"/>
	<path class="st1" d="M582.63,747.6c-22.42-53.33-44.7-106.35-67.37-160.27c22.23,0,43.03,0,64.64,0
		c10.16,32.59,20.37,65.31,30.58,98.03c7.29-15.78,11.74-32.32,17.01-48.57c5.37-16.54,10.36-33.21,15.64-50.19
		c20.82,0,41.11,0,62.57,0c-22.53,53.71-44.97,107.19-67.55,161C619.81,747.6,601.64,747.6,582.63,747.6z"/>
	<path class="st1" d="M2062.91,735.49c-18.49,0-36.42,0-55.26,0c-22.73-52.93-45.64-106.25-68.92-160.46c21.34,0,41.55,0,62.71,0
		c10.53,32.67,21.19,65.77,31.86,98.86c0.41-0.01,0.82-0.01,1.23-0.02c10-33,20-66.01,30.15-99.51c21.41,0,42.38,0,64.47,0
		C2107,628.24,2085.13,681.44,2062.91,735.49z"/>
	<path class="st2" d="M1778.54,973.21c-6.4,0-11.9,0-17.97,0c-0.23-2.18-0.61-4.19-0.63-6.19c-0.1-10.84-0.04-21.69-0.19-32.53
		c-0.05-3.42-0.28-6.89-0.9-10.24c-1.43-7.74-8.11-10.96-14.73-6.71c-2.66,1.71-5.09,4.8-6.13,7.79c-1.35,3.88-1.56,8.28-1.65,12.47
		c-0.24,11.1-0.15,22.21-0.22,33.32c0,0.48-0.34,0.95-0.72,1.95c-5.48,0-11.18,0-17.52,0c-0.19-1.85-0.56-3.86-0.57-5.87
		c-0.06-9.79-0.01-19.57-0.04-29.36c-0.01-3.44,0-6.88-0.21-10.31c-0.47-7.71-2.89-10.93-8.37-11.43
		c-6.48-0.6-12.09,3.02-13.65,9.56c-1.03,4.33-1.39,8.89-1.47,13.35c-0.2,11.1-0.07,22.2-0.07,34c-6.08,0-11.95,0-18.45,0
		c0-22.88,0-45.76,0-69.2c5.1,0,10.25,0,16.1,0c0.41,1.73,0.91,3.84,1.42,5.99c20.84-11.72,28.69-11.46,41.26,1.54
		c1.71-1.43,3.41-2.94,5.19-4.35c7.41-5.83,15.78-7.3,24.69-4.71c7.39,2.15,12.3,7.12,13.8,14.87c0.65,3.36,1.08,6.81,1.12,10.23
		c0.18,13.49,0.18,26.98,0.22,40.47C1778.88,969.37,1778.69,970.91,1778.54,973.21z"/>
	<path class="st3" d="M1400.02,974.58c-6.87,0-12.57,0-18.77,0c0-23.39,0-46.32,0-69.86c5.34,0,10.73,0,16.44,0
		c0.45,1.61,0.92,3.31,1.46,5.27c0.96-0.34,1.86-0.37,2.24-0.83c5.62-6.82,12.53-7.75,20.76-5.57c3.81,1.01,8.1,0.17,12.07,0.17
		c0.42-1.46,0.92-2.24,0.8-2.91c-1.58-8.76,2.62-13.8,10.39-16.85c2.65-1.04,5.03-2.78,8.63-4.83c0,8.41,0,15.92,0,23.99
		c4.69,0.36,8.51,0.65,12.77,0.98c0,4.96,0,9.58,0,14.6c-3.97,0.29-7.56,0.54-11.86,0.85c0,12.27-0.08,24.33,0.05,36.38
		c0.04,3.25,2.4,4.6,5.41,4.41c2.05-0.12,4.07-0.72,6.83-1.25c0.55,4.75,1.05,9.11,1.57,13.65c-6.19,3.86-12.72,4.22-19.26,3.21
		c-8.84-1.37-13-5.85-13.49-14.95c-0.56-10.29-0.46-20.62-0.62-30.94c-0.05-3.16-0.01-6.32-0.01-9.85
		c-2.86-0.57-5.36-1.07-8.27-1.65c-0.29-2.15-0.58-4.35-1.12-8.37c-2.09,4.78-3.51,8.03-5.07,11.59c-1.1-0.27-2.07-0.46-3.01-0.76
		c-9.68-3.13-15.38,0.12-16.73,10.36c-0.94,7.05-0.99,14.23-1.17,21.36C1399.87,959.9,1400.02,967.02,1400.02,974.58z"/>
	<path class="st4" d="M2054.87,902.23c0.32,2.19,0.64,4.38,1.08,7.41c1.55-1.28,2.57-2,3.44-2.87c9.97-9.98,30.79-10.15,41.35,5.93
		c8.19,12.48,8.09,36.1-0.33,48.39c-9.24,13.5-25.56,16.51-38.74,7.16c-1.2-0.85-2.4-1.69-4.49-3.15c0,11.61,0,22.06,0,33.19
		c-6.35,0-12.21,0-18.74,0c0-31.8,0-63.64,0-96.07C2043.69,902.23,2049.07,902.23,2054.87,902.23z M2088.12,936.33
		c-1.02-4.08-1.4-9.3-3.59-13.61c-5.36-10.58-19.5-10.84-24.89-0.31c-4.98,9.72-4.57,20.06,1.04,29.61
		c2.86,4.87,7.76,7.36,13.5,6.61c5.67-0.75,9.81-4.1,11.49-9.66C2086.8,945.22,2087.2,941.25,2088.12,936.33z"/>
	<path class="st5" d="M2464.71,970.19c-5.52,0-10.71,0-16.41,0c-0.27-2.5-0.51-4.74-0.75-6.98c-0.74,0.1-1.44-0.02-1.69,0.25
		c-13.82,15.59-42.55,11.28-48.38-17.09c-1.76-8.56-1.71-17.37,0.69-25.94c5.85-20.95,27.33-28.43,45.01-15.72
		c0.6,0.43,1.26,0.79,2.89,1.79c0-11.29,0-21.88,0-32.88c6.59,0,12.28,0,18.65,0C2464.71,905.6,2464.71,937.45,2464.71,970.19z
		 M2415.24,934.39c0.71,4.34,0.96,8.06,1.98,11.55c2.03,7.01,7.25,11.19,13.5,11.4c6.17,0.21,11.86-3.75,14.1-10.65
		c2.58-7.96,2.48-16.13-0.3-24.04c-2.1-6-6.47-9.5-13.05-9.67c-6.57-0.17-11.25,3.12-13.55,8.97
		C2416.33,926.02,2416.02,930.58,2415.24,934.39z"/>
	<path class="st6" d="M563.84,1005.27c-0.43-4.23-0.88-8.77-1.37-13.58c3.26,0,5.58,0.09,7.89-0.01
		c9.89-0.43,15.59-8.91,12.06-18.26c-7.28-19.26-14.73-38.46-22.09-57.69c-0.84-2.2-1.61-4.43-2.62-7.19
		c6.72-1.69,13.11-0.95,19.85-0.47c5.36,15.52,10.64,30.84,15.93,46.15c0.54,0.03,1.08,0.07,1.63,0.1
		c5.07-15.39,10.14-30.77,15.33-46.51c6.24,0,12.2,0,18.91,0c-0.54,2.13-0.88,4.1-1.54,5.96c-8.57,23.85-17.18,47.69-25.78,71.52
		c-0.27,0.75-0.59,1.47-0.88,2.21C594.51,1004.66,583.12,1010.29,563.84,1005.27z"/>
	<path class="st7" d="M1540.23,974.59c-4.83,0-9.85,0.55-14.65-0.25c-2.19-0.37-3.94-3.41-6.34-5.66c-1.4,0.85-3.34,2.07-5.3,3.23
		c-7.7,4.56-15.88,5.5-24.41,2.99c-8.59-2.53-14.03-9.66-14.57-18.73c-0.51-8.6,3.86-16.13,12.2-19.4
		c5.36-2.1,11.14-3.15,16.74-4.62c4.79-1.26,9.59-2.46,14.17-3.64c0.13-7.62-0.76-9.38-5.04-10.85c-7.95-2.72-13.93-0.47-19.85,7.83
		c-5.05-0.95-10.37-1.95-16.05-3.01c2.29-10.09,7.81-16.24,16.99-18.74c9.07-2.47,18.31-2.48,27.44-0.2
		c8.74,2.18,14.62,7.27,15.19,16.88c0.34,5.79,0.5,11.6,0.6,17.4c0.1,6.08-0.31,12.18,0.15,18.22
		C1537.94,961.98,1539.2,967.87,1540.23,974.59z M1517.88,940.98c-6.42,1.66-12.36,2.9-18.08,4.79c-4.25,1.4-6.28,4.89-5.91,8.4
		c0.4,3.81,3.62,7.67,7.67,8.01c3.03,0.26,6.43-0.08,9.19-1.26C1517.83,957.9,1519.44,953.15,1517.88,940.98z"/>
	<path class="st8" d="M816.37,947.75c-16.64,0-31.61,0-46.59,0c0.24,9.26,3.76,14.53,10.44,16.35c6.89,1.88,10.68-0.16,16.64-9.23
		c5.48,0.89,11.16,1.81,16.83,2.73c-1.49,9.88-9.24,17.87-19.55,20.33c-7.06,1.68-14.18,1.67-21.2-0.11
		c-10.61-2.69-17.54-9.6-20.89-19.82c-3.37-10.31-3.33-20.89-0.04-31.22c4.44-13.93,16.51-22.02,31.52-21.67
		c15.17,0.36,26.37,8.82,30.05,23.39C815.06,934.31,815.35,940.39,816.37,947.75z M795.95,935.54c0.25-9.87-4.86-15.96-12.82-15.97
		c-8.1-0.01-13.69,6.89-12.89,15.97C778.83,935.54,787.41,935.54,795.95,935.54z"/>
	<path class="st8" d="M422.29,949.11c-14.83,0-29.81,0-44.74,0c-0.36,9.05,3.21,14.68,9.92,16.57c7.08,1.99,11.31-0.26,16.7-9.27
		c5.6,0.96,11.43,1.97,17.77,3.06c-3.18,10.4-9.46,16.69-18.92,19.58c-8.57,2.62-17.22,2.3-25.73-0.64
		c-7.42-2.56-12.8-7.51-15.96-14.56c-5.81-12.97-6.02-26.25-0.24-39.23c5.6-12.57,17.08-18.73,31.67-17.84
		c13.4,0.82,23.39,8.49,27.74,21.28C422.97,935.34,423.47,940.63,422.29,949.11z M377.52,936.98c8.77,0,17.52,0,26.31,0
		c-0.67-10.2-6.08-16.13-13.74-15.8C382.27,921.51,377.22,927.84,377.52,936.98z"/>
	<path class="st2" d="M1144.19,953.46c5.47,0.89,11.13,1.82,17.82,2.91c-2.91,9.06-8.08,15.17-16.23,18.63
		c-23.12,9.82-45.57-2.94-48.17-27.87c-0.72-6.91-0.08-14.36,1.75-21.06c3.97-14.58,16.44-22.88,31.61-22.43
		c15.34,0.45,26.74,9.38,30.24,24.28c1.31,5.57,1.57,11.38,2.42,18.02c-15.94,0-30.88,0-45.68,0c-1.3,8.38,2.05,14.19,8.99,16.61
		C1134.04,965.01,1138.26,962.87,1144.19,953.46z M1143.99,934.46c0.19-7.13-2.19-11.96-7.85-14.96c-4.66-2.47-9.32-1.88-13.34,1.27
		c-4.3,3.36-6.93,7.66-5.25,13.7C1126.24,934.46,1134.61,934.46,1143.99,934.46z"/>
	<path class="st4" d="M967.73,947.2c-16.95,0-31.92,0-46.9,0c0.49,9.59,4,14.79,10.64,16.45c8.18,2.04,13.01-2.19,16.2-9.52
		c5.94,1.03,11.56,2,17.2,2.98c-2.47,11.3-10.9,19.17-22.6,20.71c-5.18,0.68-10.63,0.68-15.78-0.15
		c-11.01-1.78-18.74-8.21-22.71-18.72c-4.27-11.32-4.24-22.83-0.13-34.14c4.82-13.25,16.53-20.74,30.87-20.29
		c14.78,0.47,25.68,8.14,29.68,21.83C966.02,932.54,966.42,939.13,967.73,947.2z M947.55,934.91c-0.77-10.86-5.52-16.08-13.93-15.75
		c-7.93,0.31-12.56,6.04-12.59,15.75C929.87,934.91,938.69,934.91,947.55,934.91z"/>
	<path class="st6" d="M272.72,949.52c-16.25,0-31.23,0-46.12,0c-0.64,8.96,2.77,14.63,9.55,16.82c6.86,2.22,11.23-0.02,16.85-9.03
		c2.8,0.37,5.9,0.73,8.97,1.22c2.78,0.44,5.53,1.01,8.83,1.62c-3.07,10.24-9.3,16.48-18.69,19.46c-8.57,2.72-17.28,2.43-25.75-0.47
		c-8.53-2.92-14.27-9.02-17.39-17.37c-4.03-10.77-4.23-21.78-0.58-32.69c4.73-14.15,16.63-22.24,31.51-21.76
		c15.26,0.5,26.38,8.91,30.12,23.5C271.49,936.56,271.77,942.62,272.72,949.52z M252.76,938.01c-0.63-11.45-6.09-16.85-15.08-15.82
		c-7.9,0.9-12.26,7.35-10.6,15.82C235.47,938.01,243.87,938.01,252.76,938.01z"/>
	<path class="st6" d="M1858.13,943.53c-16.67,0-31.65,0-46.63,0c0.26,9.15,3.7,14.35,10.42,16.38c6.62,2,10.35,0.03,16.83-9.17
		c5.41,0.82,11.09,1.68,17.47,2.65c-2.69,10.21-9.05,16.36-18.2,19.55c-8.74,3.05-17.69,2.72-26.44-0.38
		c-9.15-3.24-14.88-9.93-17.8-18.93c-3.27-10.06-3.28-20.36-0.2-30.45c4.32-14.15,16.37-22.67,31.02-22.43
		c15.61,0.25,26.89,8.68,30.72,23.64C1856.81,930.14,1857.11,936.21,1858.13,943.53z M1811.48,931.46c9.07,0,17.63,0,26.15,0
		c0.54-9.53-4.31-15.72-12.24-16.1C1817.4,914.97,1812.05,920.91,1811.48,931.46z"/>
	<path class="st4" d="M1366.36,945.34c-15.24,0-30.18,0-45.05,0c-0.49,8.91,3.15,14.71,9.8,16.64c6.89,2,10.86-0.12,16.78-9.32
		c5.4,0.85,11.04,1.74,17.31,2.73c-1.89,9.36-7.41,14.93-15.05,18.44c-24.05,11.06-48.18-3.67-49.07-30.02
		c-0.19-5.73,0.17-11.71,1.58-17.24c3.82-14.94,15.64-23.73,30.68-23.7c16.19,0.03,27.13,8.26,31.48,23.68
		C1366.48,932.42,1367.05,938.35,1366.36,945.34z M1347.05,933.29c0.28-10.06-4.33-15.63-12.67-15.71
		c-8.46-0.08-13.66,6.07-13.12,15.71C1329.86,933.29,1338.46,933.29,1347.05,933.29z"/>
	<path class="st4" d="M438.22,978.29c0-23.31,0-46.22,0-69.65c5.35,0,10.52,0,16.3,0c0.52,1.84,1.13,4.01,1.84,6.53
		c1.07-0.46,2.15-0.65,2.86-1.27c5.38-4.68,11.42-7.38,18.72-7.41c15.46-0.06,23.9,7.53,24.31,22.94
		c0.4,14.82,0.22,29.65,0.26,44.48c0,1.26-0.22,2.52-0.37,4.14c-6.14,0-11.85,0-18.58,0c0-4.07,0.01-7.96,0-11.84
		c-0.04-9.53-0.09-19.06-0.16-28.6c-0.01-1.32-0.04-2.65-0.15-3.97c-0.68-8.08-4.08-12.14-10.51-12.6
		c-7.16-0.51-13.56,4.27-14.78,11.59c-0.74,4.41-0.87,8.96-0.93,13.45c-0.13,10.55-0.04,21.11-0.04,32.21
		C450.52,978.29,444.64,978.29,438.22,978.29z"/>
	<path class="st8" d="M736.11,924.16c-5.59,1.14-10.93,2.23-16.68,3.4c-4.15-8.83-11.66-9.12-19.6-7.87
		c-2.87,0.45-6.08,1.36-6.27,4.96c-0.17,3.25,2.76,4.3,5.29,5.03c5.07,1.47,10.24,2.57,15.3,4.04c4.55,1.32,9.2,2.53,13.49,4.48
		c11.76,5.35,15.23,18.56,7.87,29.22c-3.25,4.71-7.65,8-13.14,9.72c-10.95,3.43-21.92,3.42-32.65-0.64
		c-8.34-3.16-13.93-9.1-16.46-18.77c6.2-1.09,11.82-2.08,17.84-3.13c0.71,1.16,1.37,2.2,2,3.26c4.56,7.66,16.2,10.56,23.51,5.48
		c1.64-1.14,3.02-3.82,3-5.79c-0.01-1.45-2.24-3.64-3.9-4.17c-6.02-1.93-12.25-3.21-18.35-4.91c-3.3-0.92-6.57-2.01-9.73-3.31
		c-7.23-2.97-11.44-8.36-12.03-16.24c-0.63-8.47,2.73-15.35,10.2-19.11c13.02-6.55,26.6-6.36,39.75-0.35
		C731.21,912.04,734.83,917.02,736.11,924.16z"/>
	<path class="st2" d="M1196.79,975.68c-6.54,0-12.03,0-18.45,0c-0.95-23.34-0.62-46.42-0.65-70.07c5.8,0,10.96,0,16.78,0
		c0.53,1.73,1.18,3.88,1.94,6.37c1.03-0.45,2.11-0.64,2.82-1.26c6.29-5.54,13.56-7.9,21.92-7.27c12.2,0.92,19.5,7.65,20.85,19.84
		c0.49,4.45,0.38,8.98,0.4,13.47c0.05,12.66,0.02,25.33,0.02,38.45c-6.27,0-11.97,0-18.47,0c-0.18-2.9-0.47-5.69-0.49-8.48
		c-0.06-10.05-0.03-20.1-0.05-30.14c0-1.85-0.04-3.7-0.18-5.55c-0.63-8.46-4.29-12.84-10.89-13.11
		c-7.08-0.29-13.73,4.59-14.42,11.97c-0.94,9.97-0.84,20.03-1.09,30.06C1196.69,964.93,1196.79,969.9,1196.79,975.68z"/>
	<path class="st9" d="M1872.76,902.33c5.75,0,10.73,0,16.2,0c0.55,2.45,1.09,4.82,1.75,7.74c2.32-1.78,4.11-3.26,6.01-4.58
		c6.13-4.28,12.98-5.82,20.33-4.84c11.49,1.53,18.74,8.47,19.17,19.7c0.64,16.63,0.46,33.29,0.59,49.94c0,0.48-0.36,0.96-0.81,2.08
		c-5.4,0-11.08,0-17.45,0c-0.2-1.72-0.6-3.72-0.63-5.72c-0.14-10.04-0.17-20.09-0.27-30.14c-0.03-2.91-0.04-5.82-0.24-8.72
		c-0.54-8-3.98-12.21-10.31-12.76c-6.45-0.57-13.22,4.13-14.7,10.85c-0.85,3.82-0.85,7.87-0.89,11.82
		c-0.11,11.34-0.04,22.68-0.04,34.76c-6.36,0-12.21,0-18.71,0C1872.76,949.22,1872.76,926.09,1872.76,902.33z"/>
	<path class="st5" d="M1027.05,975.97c0-9.92,0.04-19.41-0.01-28.89c-0.03-5.29-0.01-10.59-0.36-15.86
		c-0.51-7.77-3.22-11.25-8.93-12.13c-6.97-1.08-13.44,2.56-15.6,9.29c-0.95,2.96-1.26,6.22-1.3,9.35
		c-0.16,10.84-0.06,21.69-0.09,32.54c-0.01,1.8-0.18,3.59-0.3,5.86c-6.11,0-11.79,0-18.13,0c0-23.15,0-46.28,0-69.9
		c5.15,0,10.33,0,16.11,0c0.41,2.34,0.84,4.81,1.12,6.47c5.94-2.68,11.79-6.55,18.17-7.95c15.87-3.48,27.31,5.46,27.87,21.67
		c0.57,16.32,0.12,32.68,0.12,49.55C1040.03,975.97,1034.34,975.97,1027.05,975.97z"/>
	<path class="st6" d="M192.47,926.59c-5.73,1.04-10.89,1.97-16.42,2.98c-5.1-8.46-12.69-9.83-21.27-7.13
		c-1.92,0.61-3.34,2.83-4.99,4.31c1.48,1.64,2.66,4.05,4.5,4.76c4.41,1.7,9.14,2.52,13.7,3.85c5.31,1.55,10.79,2.77,15.83,4.99
		c11.81,5.2,15.3,18.34,8.12,29.14c-3.36,5.06-8.08,8.4-13.82,10.06c-10.14,2.94-20.43,3.06-30.46-0.21
		c-9.05-2.95-15.27-9.03-18.12-19.51c6.23-0.99,12.04-1.92,18.39-2.93c3.54,10.47,11.45,11.84,20.55,10.3c2-0.34,4.14-1.18,5.7-2.43
		c3.55-2.85,3.06-6.95-1.18-8.77c-3.36-1.44-7.08-2.02-10.63-3.04c-5.83-1.67-11.8-3.01-17.44-5.18
		c-9.13-3.51-12.96-9.55-12.81-18.83c0.14-8.61,4.9-15.74,13.41-18.68c11.06-3.82,22.39-3.62,33.48-0.02
		C185.97,912.5,189.79,917.46,192.47,926.59z"/>
	<path class="st10" d="M1612.15,973.54c-6.47,0-12.42,0-18.73,0c0-23.22,0-46.15,0-69.63c5.48,0,10.66,0,16.45,0
		c0.38,2.16,0.79,4.55,1.32,7.61c2.3-1.8,4.05-3.3,5.92-4.63c8.18-5.79,17.1-6.59,26.43-3.52c7.49,2.46,12.54,7.84,12.96,15.52
		c0.98,17.9,1.01,35.86,1.44,54.45c-6.54,0-12.23,0-18.64,0c-0.17-1.65-0.52-3.63-0.56-5.62c-0.24-12.7-0.22-25.4-0.66-38.09
		c-0.31-8.92-3.77-12.98-10.39-13.35c-7.47-0.42-13.74,4.57-15,12.39c-0.58,3.63-0.51,7.38-0.54,11.08
		C1612.11,950.84,1612.15,961.93,1612.15,973.54z"/>
	<path class="st2" d="M2149.93,945.18c4.61-12.6,9.2-25.22,13.83-37.81c2.33-6.33,2.37-6.33,8.95-6.4
		c3.92-0.04,7.84-0.01,12.95-0.01c-9.4,24-18.51,47.25-27.66,70.6c-5.73,0-10.98,0-17.28,0c-9.28-22.73-18.72-45.84-28.48-69.74
		c6.75,0,12.69,0,19.92,0c5.25,13.99,10.76,28.68,16.27,43.36C2148.93,945.18,2149.43,945.18,2149.93,945.18z"/>
	<path class="st8" d="M331.88,908.64c6.82,0,12.59,0,19.44,0c-9.35,23.86-18.46,47.12-27.64,70.56c-5.67,0-10.9,0-17.22,0
		c-9.25-22.66-18.69-45.78-28.53-69.91c6.98,0,13.06,0,19.96,0c5.33,14.25,10.83,28.96,16.96,45.36
		C320.87,938.37,326.31,923.68,331.88,908.64z"/>
	<path class="st4" d="M867.31,976.96c-6.2,0-11.42,0-17.24,0c-9.43-23.18-18.83-46.3-28.51-70.09c7.06,0,13.08,0,19.87,0
		c5.45,14.56,10.95,29.27,17.07,45.62c6.01-16.26,11.47-31.06,16.86-45.66c6.62,0,12.59,0,19.43,0
		C885.52,930.52,876.49,953.55,867.31,976.96z"/>
	<path class="st4" d="M2216.86,900.29c4.43,0.31,8.02,0.56,12.09,0.84c0,4.91,0,9.5,0,14.43c-3.97,0.34-7.56,0.64-12.19,1.03
		c0,7.75-0.03,15.32,0.01,22.88c0.02,3.7,0.06,7.4,0.27,11.09c0.34,6.16,1.79,7.27,7.97,6.34c1.26-0.19,2.51-0.46,4.42-0.82
		c0.54,4.74,1.03,9.09,1.58,13.9c-7.92,3.77-15.76,4.5-23.8,1.57c-6.28-2.28-8.71-7.41-8.92-13.66c-0.32-9.5-0.43-19-0.59-28.51
		c-0.06-3.95-0.01-7.9-0.01-12.25c-2.79-0.6-5.25-1.13-8.22-1.77c0-4.34,0-8.72,0-13.72c2.13-0.49,4.56-1.06,7.14-1.66
		c0.23-0.71,0.77-1.48,0.66-2.14c-1.56-8.69,2.45-13.83,10.26-16.89c2.66-1.04,5.04-2.8,8.57-4.81
		C2216.37,884.6,2216.61,892.29,2216.86,900.29z"/>
	<path class="st10" d="M1989.52,971.14c-6.48,2.77-12.4,3.59-18.53,2.66c-9.48-1.43-13.62-5.54-14.13-15.05
		c-0.58-10.81-0.59-21.65-0.83-32.47c-0.06-2.6-0.01-5.2-0.01-8.25c-2.97-0.59-5.44-1.09-8.14-1.62c0-4.66,0-9.06,0-13.95
		c2.5-0.36,4.75-0.68,7.35-1.05c0.25-0.99,0.86-2.03,0.68-2.91c-1.63-8.45,2.45-13.28,9.82-16.37c2.8-1.18,5.34-2.98,9.27-5.23
		c0,8.96,0,16.49,0,24.52c4.43,0.3,8.04,0.54,12.2,0.83c0,4.71,0,9.27,0,14.11c-3.86,0.46-7.45,0.89-11.53,1.38
		c0,12.06-0.07,23.86,0.04,35.65c0.03,3.69,2.51,4.97,5.9,4.72c1.82-0.13,3.63-0.42,6.27-0.74
		C1988.42,961.91,1988.94,966.23,1989.52,971.14z"/>
	<path class="st4" d="M2355.64,899.59c0-4.34,0-8.49,0-13.13c5.96-3.49,11.78-6.9,19-11.12c0,8.89,0,16.35,0,24.29
		c4.54,0.33,8.13,0.59,12.33,0.89c0,4.6,0,9.2,0,14.34c-3.55,0.25-7.15,0.5-11.23,0.79c-0.31,1.89-0.84,3.61-0.83,5.32
		c0.04,8.98,0.14,17.97,0.38,26.95c0.21,8.06,1.15,8.77,9.52,8.04c0.76-0.07,1.54,0.07,3.18,0.17c0.45,4.28,0.9,8.6,1.4,13.35
		c-7.68,3.41-15.14,3.94-22.66,1.81c-5.91-1.67-9.36-6-9.72-12.17c-0.54-9.22-0.78-18.46-1.03-27.7c-0.13-4.97-0.02-9.95-0.02-15.15
		c-2.98-0.46-5.24-0.81-7.91-1.22c0-4.64,0-9.02,0-13.92C2350.34,900.66,2352.79,900.17,2355.64,899.59z"/>
	<path class="st4" d="M541.28,907.27c4.1,0.23,7.49,0.41,11.47,0.63c0,4.76,0,9.31,0,14.44c-3.63,0.23-7.22,0.46-11.97,0.77
		c0,4.8-0.01,9.45,0,14.11c0.02,6.08-0.14,12.18,0.13,18.25c0.38,8.25,1.58,9.11,9.62,8c0.74-0.1,1.48-0.15,3.2-0.31
		c0.48,4.75,0.94,9.29,1.38,13.71c-6.93,3.59-13.53,3.6-20.06,2.6c-7.38-1.14-11.5-5.02-12.11-12.6
		c-0.93-11.57-0.9-23.23-1.24-34.85c-0.08-2.63-0.01-5.26-0.01-8.27c-2.77-0.56-5.22-1.05-7.94-1.59c0-4.58,0-8.96,0-13.73
		c2.58-0.28,4.84-0.52,6.81-0.74c0.48-0.91,0.98-1.42,0.91-1.8c-2.94-14.53,8.78-16.89,18.28-22.29
		C541.76,891.59,539.69,899.25,541.28,907.27z"/>
	<path class="st4" d="M1261.66,920.06c-3.18-0.3-5.43-0.51-7.97-0.76c0-4.63,0-8.8,0-13.54c2.23-0.47,4.67-0.97,7.85-1.64
		c0-2.33,0.26-4.66-0.05-6.92c-0.68-4.95,1.48-7.83,5.82-9.89c3.99-1.89,7.72-4.34,12.91-7.32c0,8.74,0,16.19,0,24.26
		c4.76,0.36,8.56,0.65,12.71,0.97c0,4.76,0,9.13,0,14.04c-3.83,0.24-7.43,0.47-11.92,0.75c-0.13,2.91-0.36,5.7-0.36,8.5
		c-0.01,7.67,0.01,15.35,0.12,23.02c0.13,9,1.12,9.79,10.36,8.89c0.48-0.05,0.98,0.15,2.43,0.4c0.49,4.03,1.01,8.34,1.56,12.8
		c-7.3,4.08-14.65,3.97-21.89,2.4c-5.89-1.28-9.86-5.25-10.4-11.55c-0.61-7.1-0.95-14.23-1.13-21.36
		C1261.52,935.73,1261.66,928.33,1261.66,920.06z"/>
	<path class="st7" d="M2336.17,873.5c0,33.01,0,64.92,0,97.34c-6.05,0-11.74,0-18.11,0c0-32.21,0-64.31,0-96.89
		c1.9-0.16,3.68-0.4,5.46-0.43C2327.44,873.46,2331.37,873.5,2336.17,873.5z"/>
	<path class="st7" d="M1573.74,973.94c-6.12,0-11.8,0-17.99,0c0-23.5,0-46.55,0-70.04c5.94,0,11.62,0,17.99,0
		C1573.74,927.1,1573.74,950.17,1573.74,973.94z"/>
	<path class="st0" d="M2502.15,951.69c0,6.27,0,12.18,0,18.41c-6.24,0-11.98,0-18.22,0c0-6.29,0-12.26,0-18.41
		C2490.17,951.69,2495.9,951.69,2502.15,951.69z"/>
	<path class="st0" d="M2260.87,953c0,6.1,0,11.77,0,18.05c-6.04,0-11.91,0-18.3,0c0-5.82,0-11.72,0-18.05
		C2248.7,953,2254.57,953,2260.87,953z"/>
	<path class="st3" d="M1573.92,877.08c0,5.88,0,10.86,0,16.45c-6.11,0-11.98,0-18.31,0c0-5.36,0-10.54,0-16.17
		C1561.73,876.07,1567.79,876.33,1573.92,877.08z"/>
	<path class="st11" d="M1083.83,563.51c0-4.42,0-8.85,0-13.27c0.36,0,0.72,0,1.08,0c0,4.42,0,8.85,0,13.27l-0.54,0.01
		L1083.83,563.51z"/>
</g>
</svg>
